<?xml version="1.0" encoding="utf-8"?>
<!-- Generator: Adobe Illustrator 22.0.1, SVG Export Plug-In . SVG Version: 6.00 Build 0)  -->
<svg version="1.1" id="图层_1" xmlns="http://www.w3.org/2000/svg" xmlns:xlink="http://www.w3.org/1999/xlink" x="0px" y="0px"
	 viewBox="0 0 120 120" style="enable-background:new 0 0 120 120;" xml:space="preserve">
<style type="text/css">
	.st0{fill:none;}
	.st1{fill:#E9E9E9;}
	.st2{fill:#989697;}
	.st3{fill:#9B999A;}
	.st4{fill:#A3A1A2;}
	.st5{fill:#ABA9AA;}
	.st6{fill:#B2B2B2;}
	.st7{fill:#BAB8B9;}
	.st8{fill:#C2C0C1;}
	.st9{fill:#CBCBCB;}
	.st10{fill:#D2D2D2;}
	.st11{fill:#DADADA;}
	.st12{fill:#E2E2E2;}
</style>
<path class="st0" d="M0,0h120v120H0V0z"/>
<path class="st1" d="M60,12L60,12c2.3,0,4.2,2.7,4.2,6v12c0,3.3-1.9,6-4.2,6l0,0c-2.3,0-4.2-2.7-4.2-6V18C55.8,14.7,57.7,12,60,12z"
	/>
<path class="st2" d="M84,18.4L84,18.4c2,1.2,2.3,4.4,0.6,7.3l-6,10.4C77,39,74,40.4,72,39.2l0,0c-2-1.2-2.3-4.4-0.6-7.3l6-10.4
	C79,18.7,82,17.3,84,18.4z"/>
<path class="st3" d="M101.6,36L101.6,36c1.2,2-0.2,5-3.1,6.6l-10.4,6c-2.9,1.7-6.1,1.4-7.3-0.6l0,0c-1.2-2,0.2-5,3.1-6.6l10.4-6
	C97.1,33.7,100.4,34,101.6,36z"/>
<path class="st4" d="M108,60L108,60c0,2.3-2.7,4.2-6,4.2H90c-3.3,0-6-1.9-6-4.2l0,0c0-2.3,2.7-4.2,6-4.2h12
	C105.3,55.8,108,57.7,108,60z"/>
<path class="st5" d="M101.6,84L101.6,84c-1.2,2-4.4,2.3-7.3,0.6l-10.4-6C81,77,79.6,74,80.8,72l0,0c1.2-2,4.4-2.3,7.3-0.6l10.4,6
	C101.3,79,102.7,82,101.6,84z"/>
<path class="st6" d="M84,101.6L84,101.6c-2,1.2-5-0.2-6.6-3.1l-6-10.4c-1.7-2.9-1.4-6.1,0.6-7.3l0,0c2-1.2,5,0.2,6.6,3.1l6,10.4
	C86.3,97.1,86,100.4,84,101.6z"/>
<path class="st7" d="M60,108L60,108c-2.3,0-4.2-2.7-4.2-6V90c0-3.3,1.9-6,4.2-6l0,0c2.3,0,4.2,2.7,4.2,6v12
	C64.2,105.3,62.3,108,60,108z"/>
<path class="st8" d="M36,101.6L36,101.6c-2-1.2-2.3-4.4-0.6-7.3l6-10.4C43,81,46,79.6,48,80.8l0,0c2,1.2,2.3,4.4,0.6,7.3l-6,10.4
	C41,101.3,38,102.7,36,101.6z"/>
<path class="st9" d="M18.4,84L18.4,84c-1.2-2,0.2-5,3.1-6.6l10.4-6c2.9-1.7,6.1-1.4,7.3,0.6l0,0c1.2,2-0.2,5-3.1,6.6l-10.4,6
	C22.9,86.3,19.6,86,18.4,84z"/>
<path class="st10" d="M12,60L12,60c0-2.3,2.7-4.2,6-4.2h12c3.3,0,6,1.9,6,4.2l0,0c0,2.3-2.7,4.2-6,4.2H18C14.7,64.2,12,62.3,12,60z"
	/>
<path class="st11" d="M18.4,36L18.4,36c1.2-2,4.4-2.3,7.3-0.6l10.4,6C39,43,40.4,46,39.2,48l0,0c-1.2,2-4.4,2.3-7.3,0.6l-10.4-6
	C18.7,41,17.3,38,18.4,36z"/>
<path class="st12" d="M36,18.4L36,18.4c2-1.2,5,0.2,6.6,3.1l6,10.4c1.7,2.9,1.4,6.1-0.6,7.3l0,0c-2,1.2-5-0.2-6.6-3.1l-6-10.4
	C33.7,22.9,34,19.6,36,18.4z"/>
</svg>
